<svg xmlns="http://www.w3.org/2000/svg" viewBox="0 0 183.41 55.85"><defs>
<style>.cls-1,.cls-2{fill:#001670;}.cls-2{font-size:25.72px;font-family:Montserrat-Bold, Montserrat Bold;font-weight:700;}.cls-3{letter-spacing:0em;}.cls-4{letter-spacing:0.01em;}</style>
</defs><g id="Layer_2" data-name="Layer 2"><g id="TEXT_AND_INFOS" data-name="TEXT AND INFOS"><polygon class="cls-1" points="14.35 21.94 14.35 33.91 24.72 39.89 35.08 33.91 35.08 21.94 24.72 15.96 14.35 21.94"/><path class="cls-1" d="M28.71,4a4,4,0,1,0-5.29,3.77l1.3,6.2L26,7.76A4,4,0,0,0,28.71,4Z"/><path class="cls-1" d="M20.73,51.86A4,4,0,1,0,26,48.09l-1.3-6.21-1.3,6.21A4,4,0,0,0,20.73,51.86Z"/><path class="cls-1" d="M6,12.5A4,4,0,1,0,6.6,19l6,2L7.9,16.71A4,4,0,0,0,6,12.5Z"/><path class="cls-1" d="M43.45,43.34a4,4,0,1,0-.62-6.46l-6-2,4.72,4.23A4,4,0,0,0,43.45,43.34Z"/><path class="cls-1" d="M43.45,12.5A4,4,0,1,1,42.83,19l-6,2,4.72-4.23A4,4,0,0,1,43.45,12.5Z"/><path class="cls-1" d="M6,43.34a4,4,0,1,1,.62-6.46l6-2L7.9,39.13A4,4,0,0,1,6,43.34Z"/><text class="cls-2" transform="translate(64.15 36.18)">Gle<tspan class="cls-3" x="35.57" y="0">n</tspan><tspan class="cls-4" x="49.74" y="0">t</tspan><tspan x="58.49" y="0">y</tspan></text></g></g></svg>