<svg xmlns="http://www.w3.org/2000/svg" viewBox="0 0 22.4 19.09"><defs><style>.cls-1{fill:#5f6da6;}</style></defs><g id="Layer_2" data-name="Layer 2"><g id="TEXT_AND_INFOS" data-name="TEXT AND INFOS"><path class="cls-1" d="M16.73,1.47C16.77.6,16.8,0,16.8,0H5.6V1.47H0A9,9,0,0,0,4.08,8.83l2,1.33A5.45,5.45,0,0,0,9.8,13.34v2.95H4.2v2.8h14v-2.8H12.6v-3A5.47,5.47,0,0,0,16.18,9.9l2.13-1.46a9.1,9.1,0,0,0,4-6.31l.08-.66ZM5.6,6.48a6.92,6.92,0,0,1-2-2.21H5.6ZM13.71,8A2.66,2.66,0,0,1,8.4,8V2.8h5.47C13.79,4.68,13.71,7,13.71,8Zm3-1.91-.18.12c0-.62,0-1.29.06-2h2A7.15,7.15,0,0,1,16.73,6.13Z"/></g></g></svg>