<svg xmlns="http://www.w3.org/2000/svg" viewBox="0 0 19.6 21.35"><defs><style>.cls-1{fill:#5f6da6;}</style></defs><g id="Layer_2" data-name="Layer 2"><g id="TEXT_AND_INFOS" data-name="TEXT AND INFOS"><path class="cls-1" d="M16.8,7.35H0v2.8H0c1.55,0,2.8,2.07,2.8,3.61v7.59H5.6v-2.8H14v2.8h2.8V13.76c0-1.54,1.25-3.61,2.8-3.61V7.35Z"/><polygon class="cls-1" points="11.2 5.66 12.6 6.47 14 5.66 14 4.04 12.6 3.23 11.2 4.04 11.2 5.66"/><polygon class="cls-1" points="11.3 2.42 11.3 0.81 9.9 0 8.5 0.81 8.5 2.42 9.9 3.23 11.3 2.42"/><polygon class="cls-1" points="8.4 5.66 8.4 4.04 7 3.23 5.6 4.04 5.6 5.66 7 6.47 8.4 5.66"/></g></g></svg>