<svg xmlns="http://www.w3.org/2000/svg" xmlns:xlink="http://www.w3.org/1999/xlink" viewBox="0 0 143.38 92.97"><defs><style>.cls-1{fill:url(#Dégradé_sans_nom_743);}.cls-2{fill:url(#Dégradé_sans_nom_743-2);}.cls-3{fill:url(#Dégradé_sans_nom_743-3);}.cls-4{fill:url(#Dégradé_sans_nom_743-4);}.cls-5{fill:url(#Dégradé_sans_nom_743-5);}.cls-6{fill:url(#Dégradé_sans_nom_743-6);}.cls-7{fill:url(#Dégradé_sans_nom_743-7);}.cls-8{fill:url(#Dégradé_sans_nom_743-8);}.cls-9{fill:url(#Dégradé_sans_nom_743-9);}</style><radialGradient id="Dégradé_sans_nom_743" cx="-10.7" cy="156.27" r="189.68" gradientUnits="userSpaceOnUse"><stop offset="0.36" stop-color="#fff" stop-opacity="0"/><stop offset="1" stop-color="#fff"/></radialGradient><radialGradient id="Dégradé_sans_nom_743-2" cx="156.24" cy="74.63" r="144.52" xlink:href="#Dégradé_sans_nom_743"/><radialGradient id="Dégradé_sans_nom_743-3" cx="118.46" cy="209.89" r="279.22" xlink:href="#Dégradé_sans_nom_743"/><radialGradient id="Dégradé_sans_nom_743-4" cx="60.07" cy="110.74" r="77.64" gradientTransform="translate(-4.5 -9.06) scale(1.14 1.14)" xlink:href="#Dégradé_sans_nom_743"/><radialGradient id="Dégradé_sans_nom_743-5" cx="70.9" cy="44.12" r="41.66" gradientTransform="translate(-4.5 -9.06) scale(1.14 1.14)" xlink:href="#Dégradé_sans_nom_743"/><radialGradient id="Dégradé_sans_nom_743-6" cx="90.19" cy="10.86" r="79.91" gradientTransform="translate(-4.5 -9.06) scale(1.14 1.14)" xlink:href="#Dégradé_sans_nom_743"/><radialGradient id="Dégradé_sans_nom_743-7" cx="44.27" cy="107.84" r="117.19" xlink:href="#Dégradé_sans_nom_743"/><radialGradient id="Dégradé_sans_nom_743-8" cx="193.04" cy="63.45" r="102.92" xlink:href="#Dégradé_sans_nom_743"/><radialGradient id="Dégradé_sans_nom_743-9" cx="97.33" cy="-2.06" r="62.38" gradientTransform="translate(-38.17 -25.48) scale(1.76 1.76)" xlink:href="#Dégradé_sans_nom_743"/></defs><g id="Layer_2" data-name="Layer 2"><g id="TEXT_AND_INFOS" data-name="TEXT AND INFOS"><polygon class="cls-1" points="0 23.24 0 69.73 40.26 92.97 80.51 69.73 0 23.24"/><polygon class="cls-2" points="40.26 92.97 80.51 69.73 80.51 23.24 40.26 0 40.26 92.97"/><polygon class="cls-3" points="0 23.24 0 69.73 80.51 23.24 40.26 0 0 23.24"/><polygon class="cls-4" points="68.72 54.87 68.72 76.49 87.44 87.3 106.16 76.49 68.72 54.87"/><polygon class="cls-5" points="87.44 87.3 106.16 76.49 106.16 54.87 87.44 44.06 87.44 87.3"/><polygon class="cls-6" points="68.72 54.87 68.72 76.49 106.16 54.87 87.44 44.06 68.72 54.87"/><polygon class="cls-7" points="98.02 33.39 98.02 59.58 120.7 72.67 143.38 59.58 98.02 33.39"/><polygon class="cls-8" points="120.7 72.67 143.38 59.58 143.38 33.39 120.7 20.29 120.7 72.67"/><polygon class="cls-9" points="98.02 33.39 98.02 59.58 143.38 33.39 120.7 20.29 98.02 33.39"/></g></g></svg>