<svg xmlns="http://www.w3.org/2000/svg" viewBox="0 0 24.41 15.04"><defs><style>.cls-1{fill:#5f6da6;}</style></defs><g id="Layer_2" data-name="Layer 2"><g id="TEXT_AND_INFOS" data-name="TEXT AND INFOS"><polygon class="cls-1" points="7.13 9.01 7.13 6.01 4.54 4.51 1.95 6.01 1.95 9.01 4.54 10.5 7.13 9.01"/><polygon class="cls-1" points="22.46 6.01 19.87 4.51 17.27 6.01 17.27 9.01 19.87 10.5 22.46 9.01 22.46 6.01"/><path class="cls-1" d="M12.2,8.56A6.48,6.48,0,0,0,5.72,15h13A6.49,6.49,0,0,0,12.2,8.56Z"/><path class="cls-1" d="M0,15H4.32a7.83,7.83,0,0,1,1.33-4.38,4.44,4.44,0,0,0-1.11-.16A4.54,4.54,0,0,0,0,15Z"/><path class="cls-1" d="M19.87,10.5a4.59,4.59,0,0,0-1.12.16A7.84,7.84,0,0,1,20.09,15h4.32A4.54,4.54,0,0,0,19.87,10.5Z"/><polygon class="cls-1" points="15.91 6.42 15.91 2.14 12.2 0 8.5 2.14 8.5 6.42 12.2 8.56 15.91 6.42"/></g></g></svg>