<svg xmlns="http://www.w3.org/2000/svg" viewBox="0 0 15.4 18.2"><defs><style>.cls-1{fill:#5f6da6;}</style></defs><g id="Layer_2" data-name="Layer 2"><g id="TEXT_AND_INFOS" data-name="TEXT AND INFOS"><rect class="cls-1" x="0.7" y="15.4" width="14" height="2.8"/><polygon class="cls-1" points="0 11.2 0 14 2.8 14 2.8 11.2 2.8 8.4 0 8.4 0 11.2"/><polygon class="cls-1" points="4.2 11.2 4.2 14 7 14 7 11.2 7 5.6 4.2 5.6 4.2 11.2"/><polygon class="cls-1" points="8.4 2.8 8.4 11.2 8.4 14 11.2 14 11.2 11.2 11.2 2.8 8.4 2.8"/><polygon class="cls-1" points="12.6 0 12.6 10.5 12.6 14 15.4 14 15.4 10.5 15.4 0 12.6 0"/></g></g></svg>