<svg xmlns="http://www.w3.org/2000/svg" viewBox="0 0 20.3 26.01"><defs><style>.cls-1{fill:#5f6da6;}</style></defs><g id="Layer_2" data-name="Layer 2"><g id="TEXT_AND_INFOS" data-name="TEXT AND INFOS"><path class="cls-1" d="M9.8,14.81a4.21,4.21,0,0,1-4.2-4.2h-1a5.2,5.2,0,0,0,5.2,5.2Z"/><path class="cls-1" d="M20.3,2,16.8,0l-3,1.7a9.88,9.88,0,1,0,5,5.2l1.45-.84ZM9.8,17.61a7,7,0,0,1,0-14,6.93,6.93,0,0,1,3.5,1V6.06L16.14,7.7a6.93,6.93,0,0,1,.66,2.91A7,7,0,0,1,9.8,17.61ZM18.9,5.25,16.8,6.47,14.7,5.25V2.83l2.1-1.21,2.1,1.21Z"/><rect class="cls-1" x="2.99" y="23.21" width="14" height="2.8"/></g></g></svg>