<svg xmlns="http://www.w3.org/2000/svg" viewBox="0 0 22.4 16.78"><defs><style>.cls-1{fill:#5f6da6;}</style></defs><g id="Layer_2" data-name="Layer 2"><g id="TEXT_AND_INFOS" data-name="TEXT AND INFOS"><path class="cls-1" d="M15.87,0H0V6.84a4.66,4.66,0,0,0,1.4,3.33v6.61H21V10.17a4.66,4.66,0,0,0,1.4-3.33V0Zm0,2.8H19.6v4a1.87,1.87,0,1,1-3.73,0Zm-6.54,0h3.74v4a1.87,1.87,0,0,1-3.74,0ZM2.8,2.8H6.53v4a1.87,1.87,0,1,1-3.73,0ZM18.2,14H4.2V11.46a3.75,3.75,0,0,0,.47,0,4.62,4.62,0,0,0,3.26-1.34,4.66,4.66,0,0,0,6.54,0,4.62,4.62,0,0,0,3.26,1.34,3.75,3.75,0,0,0,.47,0Z"/></g></g></svg>